<svg preserveAspectRatio="none" overflow="visible" style="display: block;" width="53.9308" height="77.9218" viewBox="0 0 53.9308 77.9218" fill="none" xmlns="http://www.w3.org/2000/svg">
<g id="Group 93136">
<path id="Vector 8" d="M18.4176 4.09182C18.5472 4.70951 18.4313 5.48762 18.2659 6.08319C18.2146 6.27141 17.9751 6.18104 17.9289 6.31081C17.8387 6.55287 17.9582 6.79502 17.8501 7.03891C17.8131 7.12229 17.4343 7.02241 17.4041 7.11006C17.2416 7.57952 17.3418 8.02449 17.2655 8.50214C17.0316 9.96855 16.8935 11.3897 16.7849 12.8523C16.7185 13.7217 16.6632 14.6315 16.6034 15.5181C16.5517 16.3015 16.2146 17.2437 16.3697 18.0596C16.3881 18.1521 16.7194 18.0948 16.7469 18.1123C17.1671 18.3869 16.497 18.299 16.4092 18.4818C16.0626 19.2167 16.0373 20.0221 16.17 20.7219C16.2274 21.0179 16.8841 20.7159 16.5164 21.0177C16.4915 21.0387 16.1388 20.9655 16.1018 21.0474C16.0186 21.2324 16.084 21.5889 16.0571 21.7314C16.0034 22.0059 16.0073 22.0515 16.0051 22.313C15.9991 22.6718 15.8271 23.1007 15.9097 23.4814C15.9284 23.5631 16.2886 23.4521 16.351 23.5823C16.4133 23.7123 16.3853 24.0602 16.301 24.1787C16.2168 24.2973 15.9326 24.2487 15.8678 24.27C15.32 24.4422 16.0834 24.8356 16.1026 24.8871C16.4303 25.829 16.0037 26.6351 16.0125 27.5138C16.0201 28.1851 16.1694 28.8954 16.1558 29.5348C16.1381 30.2913 15.9488 30.9396 15.9899 31.6737C15.9938 31.7514 16.4174 31.6559 16.423 31.7508C16.4828 32.7606 16.4474 33.7611 16.1727 34.7688C16.1447 34.8698 15.7705 34.7444 15.7203 34.8457C15.4213 35.4653 14.6977 36.4504 16.325 36.7952C16.267 37.2138 16.2083 37.721 15.8864 38.0979C15.6792 38.3421 15.2699 38.1134 15.4473 38.4073C15.4868 38.4736 15.8411 38.3818 15.8735 38.4815C16.0096 38.9019 15.9006 39.36 16.0905 39.7759C16.13 39.8602 16.4482 39.8323 16.5059 39.8555C16.9735 40.0506 16.2106 40.3976 16.1559 40.4715C15.7483 41.0315 15.9187 41.4423 15.9171 41.959C15.9166 42.0791 16.3421 41.9301 16.357 42.0453C16.4283 42.6461 16.4024 43.2678 16.2233 43.8606C16.1825 43.9929 15.8158 43.8787 15.7776 43.9423C15.6138 44.2223 16.3033 44.2706 16.1596 44.5372C16.1302 44.5934 15.8176 44.568 15.7835 44.5788C15.2486 44.7479 16.0135 44.8706 16.0311 44.9108C16.2711 45.427 15.4822 45.7754 15.6052 46.2692C15.6207 46.3288 16.0127 46.1846 16.0322 46.3541C16.1649 47.4782 16.0837 48.6561 15.797 49.7783C15.7529 49.9505 15.4532 49.8362 15.4169 49.8479C14.8503 50.0376 15.6187 50.1324 15.649 50.1889C15.8685 50.6331 15.2383 51.058 16.1585 51.3338C16.0579 52.0645 16.0815 52.7889 16.1064 53.4969C16.1471 54.6526 16.1924 55.7939 15.744 56.9588C15.7357 56.9829 15.357 56.9581 15.342 57.0062C15.1576 57.5817 15.7377 57.4425 16.4725 57.7848C16.6571 57.8706 15.8079 58.2 15.746 58.2282C15.5175 58.3317 14.9523 58.2672 14.9087 58.3002C14.5675 58.5726 16.4178 58.4382 16.4377 58.7814C16.4353 58.7923 16.0918 58.7664 16.0596 58.7973C15.9583 58.8933 16.0988 58.9739 15.9865 59.0674C15.7265 59.2774 14.8316 59.4164 15.3743 59.6914C15.4447 59.7255 16.4911 59.6032 16.4608 59.9077C16.4478 60.0326 16.5025 60.5767 16.4451 60.7269C16.3882 60.8865 16.0424 60.8045 16.0286 60.8165C15.6114 61.264 15.4147 61.1196 14.7681 61.3752C14.1243 61.6305 15.6925 61.45 15.8747 61.5223C16.0563 61.5951 15.7117 61.9255 15.5897 62.0086C15.4675 62.0921 15.2452 62.0189 15.178 62.0899C14.7408 62.5661 15.9744 62.2159 16.2361 62.3375C16.8557 62.6191 15.7152 62.9874 15.6316 63.3076C15.609 63.3929 15.8674 63.2996 15.8995 63.3698C16.0243 63.6583 15.679 63.8659 16.0498 64.1677C16.1106 64.2207 16.8385 64.3934 16.3484 64.6341C16.2776 64.668 15.9795 64.6331 15.9303 64.7669C15.8558 64.9632 15.8378 65.3123 15.9624 65.4943C16.0545 65.629 16.5055 65.3915 16.385 65.5997C16.3313 65.6923 16.0306 65.5792 15.953 65.7503C15.8745 65.9177 15.9501 66.3139 15.9849 66.456C16.0205 66.604 16.3654 66.4598 16.3916 66.4676C16.543 66.5196 16.7655 66.7603 16.7701 66.7852C17.0444 67.9915 16.7497 69.2696 17.4655 70.2687C17.5204 70.3451 17.8371 70.1187 17.8491 70.1286C17.8709 70.1443 17.8848 70.1601 17.8919 70.1762L17.7599 69.9706C17.8507 70.0972 17.0592 70.5472 16.9645 70.915C17.5187 70.3646 17.4961 70.5556 17.7007 70.6266C17.8012 70.6607 17.9612 70.3984 17.9885 70.3815C18.383 70.1183 18.0755 70.6272 18.0269 70.743C17.8358 71.1584 18.2376 70.798 18.1251 71.0814C18.0215 71.368 17.6296 71.6339 17.8246 71.7563C18.026 71.5541 18.2976 70.8614 18.4866 70.8425C19.1544 70.7616 19.9364 71.704 20.4218 71.9195C20.8883 72.1361 21.0594 72.1279 21.3221 72.3064C21.7932 72.6216 21.747 72.0486 22.1246 71.8873C22.4976 71.7218 22.0416 72.9814 22.0229 73.2712C22.0062 73.5611 22.1251 73.2862 22.1505 73.4532C22.1767 73.6203 22.0014 73.7803 22.1326 73.8704C22.2708 73.9625 22.7584 73.5447 22.867 73.2608C23.0972 72.6601 23.0567 71.9744 23.3746 72.2749C23.3932 72.2926 23.2578 72.623 23.3327 72.6735C23.9145 73.0597 24.5917 73.1863 25.2103 73.5137C25.2948 73.5592 25.1611 73.9337 25.21 73.9646C25.7256 74.2863 25.6215 73.609 26.0104 72.9236C25.8234 73.8782 25.9089 74.4891 26.3318 74.5445C26.5863 74.5778 26.5908 74.1513 26.7884 73.8726C26.8461 73.7885 26.9896 74.0968 27.0429 73.9018C27.2166 73.2645 27.1266 72.5222 27.5198 72.8543C27.5372 72.8699 27.4419 73.219 27.5045 73.247C27.9155 73.4295 28.0211 72.7547 28.4768 72.712C28.8404 72.679 29.4212 73.1414 29.83 73.2371C29.7485 74.3257 30.1455 74.1022 30.3487 73.3608C30.6068 73.4081 30.9038 73.3831 31.1452 73.5005C31.23 73.5407 31.1557 73.8531 31.1647 73.8878C31.3044 74.4319 31.4587 73.7068 31.5167 73.681C32.1544 73.4344 32.6202 74.0099 33.2385 73.4901C33.2601 73.4714 33.3203 72.715 33.4562 73.2737C33.4651 73.3122 33.2597 73.6502 33.5339 73.6864C33.8055 73.7227 34.3292 74.1455 34.7167 73.8037C34.812 73.7216 35.061 73.1121 35.2402 73.597C35.2641 73.6628 35.2316 73.8796 35.2656 74.0014C35.3759 74.3894 35.4576 73.6246 35.5834 74.2783C35.7073 74.9319 35.9875 75.4249 36.3879 74.9816C36.4007 74.9687 36.5023 74.3628 36.6258 74.374C36.8262 74.3925 37.0955 74.5221 37.3012 74.52C37.399 74.5188 37.3398 74.1411 37.3569 74.1344C38.0201 73.9287 38.478 74.2669 39.1892 74.4126C39.3227 74.4401 39.6863 73.9251 39.9385 74.3305C40.216 74.7743 39.9397 76.6278 40.5782 76.1825C40.8375 76.0042 41.1314 73.6526 41.6048 74.8643C42.4916 74.5523 43.3282 75.161 44.2077 74.7113C44.2475 74.6913 44.36 74.0331 44.4546 74.0399C44.5952 74.0512 44.6796 74.3557 44.7807 74.3735C45.1992 74.4559 45.5737 74.184 45.9802 74.2135C46.1282 74.2236 46.0929 74.5166 46.2526 74.5517C46.2581 74.5533 46.2654 74.5544 46.2731 74.5549C46.4607 74.5689 46.5713 74.1496 46.8223 74.3469C47.0174 74.4973 47.2066 75.3472 47.4608 75.4432C47.4607 74.602 47.6232 74.6169 47.9291 74.3915C47.9867 74.3478 47.9214 74.0557 47.9485 74.0199C48.058 73.8679 48.1634 74.1096 48.2708 73.9444C48.2966 73.9048 48.2956 73.6175 48.3165 73.5689C48.4908 73.1444 48.7999 73.7892 48.8475 73.9017C49.0432 74.3285 49.1383 73.9549 49.284 74.1234C49.4367 74.2921 49.2081 74.5017 49.3852 74.6044C49.7432 74.8167 50.2048 74.7757 50.5678 74.7995C50.7142 74.8073 50.6259 74.4211 50.6471 74.4133C50.9571 74.3252 51.2303 74.7472 51.4521 73.9963C51.5273 75.982 51.6487 73.8131 52.0635 74.2535C52.0956 74.2894 52.0228 75.2208 51.8917 75.3442C51.7578 75.4674 51.6029 75.1606 51.4122 75.3622C51.3679 75.4091 51.088 76.2697 51.0579 76.3216C50.7996 76.7241 50.8182 75.3293 50.806 75.2519C50.6814 74.4191 50.3548 75.3539 50.2773 75.4177C49.9198 75.709 49.6194 75.5105 49.3192 75.7226C49.1238 75.8599 49.1078 76.7741 48.9528 76.7463C48.4516 76.6552 48.2546 75.3817 47.7859 76.4927C47.682 76.7299 47.8021 77.7274 47.4217 76.9468C47.3959 76.8976 47.1127 76.1828 46.9592 76.64C46.94 76.6977 46.9453 76.9888 46.919 77.0137C46.7383 77.1749 46.6272 76.9448 46.4323 77.0595C46.39 77.0846 46.3457 77.1123 46.2996 77.1393L46.3265 77.1387C46.1627 77.2369 45.9814 77.3263 45.8036 77.2539C45.6664 77.1985 45.479 76.6606 45.4113 76.5295C45.2197 76.1516 45.0409 76.7836 44.9176 76.3231C44.793 75.8602 44.9991 75.1479 44.6927 74.8542C44.6993 75.6108 44.6918 76.3877 44.6915 77.1488C44.0299 77.1375 43.3865 76.9055 42.7245 76.9496C42.643 76.9558 42.733 77.3611 42.6456 77.3782C42.2779 77.4486 41.9521 77.1631 41.5672 77.283C41.2701 77.3773 40.9512 77.811 40.6405 77.9218C40.4418 77.0576 39.981 77.3542 39.6474 77.2759C39.5305 77.2489 39.5378 77.0177 39.455 76.9424C39.1405 76.6639 39.2878 77.4287 39.2012 77.5492C38.8269 78.0631 38.796 76.3316 38.3628 76.3731C38.3398 76.3747 38.0564 77.2965 38.0158 77.3537C37.763 77.7271 37.976 77.0322 37.8201 76.9631C37.5358 76.8366 37.3413 76.6146 37.0085 76.8814C36.9121 76.9605 36.6729 77.5331 36.4878 77.0854C36.4636 77.0268 36.4817 76.722 36.4619 76.7038C36.1043 76.4008 36.0807 77.3589 35.8681 77.68C35.6562 78.0011 35.3497 77.333 35.2873 77.1408C35.1266 76.6439 35.423 76.9328 35.4335 76.8845C35.5542 76.3106 35.3173 76.4051 35.1405 76.3524C35.1354 75.4122 34.8877 75.4628 34.9573 76.3015C34.9654 76.3932 35.1056 76.3087 35.1405 76.3524C34.9639 77.271 34.6837 77.3825 34.4087 76.5129C34.2798 76.1052 34.4275 75.6386 33.9922 75.798C33.7953 75.8697 33.8502 76.519 33.6724 76.6898C33.268 77.0796 32.7757 76.4571 32.3675 76.5346C32.2194 76.5628 32.3469 76.9229 32.245 76.9543C31.9758 77.0387 31.7504 76.762 31.4728 76.8844C31.4476 76.8959 31.4888 77.2693 31.4043 77.2698C30.7694 77.2803 30.2183 77.0099 29.5603 76.9578C29.2308 76.9322 28.6505 77.0931 28.3113 77.0229C27.733 76.9055 27.0675 76.299 26.5664 76.3754C26.2313 76.4227 26.2599 76.7988 26.09 77.0337C25.7573 77.4889 25.3917 76.5583 25.3416 76.4144C25.34 76.4098 25.6362 76.3595 25.5082 76.1512C25.4708 75.7464 25.3452 76.4131 25.3416 76.4144C25.3083 76.3223 24.7601 76.1628 24.6423 76.2165C24.5773 76.2463 24.5603 76.5989 24.5269 76.6078C23.7125 76.8069 22.9364 76.7671 22.1709 76.4433C22.1585 76.4335 22.2579 76.0526 22.2282 76.0345C21.8277 75.7735 21.4149 76.173 20.9744 76.3597C20.5116 76.5402 20.2266 76.3632 20.1808 75.6486C19.8592 75.6461 19.5407 75.2343 19.3543 74.9792C19.1768 74.7275 18.8894 75.4358 18.8619 75.4424C18.0023 75.6426 17.7505 75.0712 17.0433 74.628C16.7217 74.4284 15.9231 74.0675 15.4665 73.7951C15.0865 73.5718 15.0295 73.2772 14.6443 73.0322C14.5929 72.9986 14.3818 73.2727 14.3597 73.268C13.7056 73.142 14.5087 72.7902 14.5577 72.6193C14.5707 72.5771 14.5836 72.5363 14.5961 72.4968C14.5292 72.3966 14.3222 72.1119 14.2773 72C14.6013 71.5948 14.7486 71.3681 14.3797 71.1182C14.2904 71.0608 13.0725 71.2572 12.9373 71.1002C12.7684 70.907 13.2008 70.8368 13.0203 70.6436C13.0053 70.6266 12.7566 70.7206 12.7167 70.5696C12.5309 69.8742 12.4928 69.1295 12.323 68.487C12.3012 68.4006 11.9153 68.604 11.8768 68.4784C11.6948 67.8795 11.5951 67.2275 11.7027 66.6361C11.731 66.4931 12.0353 66.5333 12.1172 66.4908C12.6129 66.2338 11.8149 66.0855 11.7949 66.0476C11.2884 65.088 11.8975 64.2537 11.4739 63.2956C11.4489 63.2391 10.5911 62.9073 11.2792 62.6544C11.3247 62.6355 12.03 62.3947 11.5243 62.2772C11.4926 62.2696 11.1308 62.4134 11.1525 62.2127C11.174 62.01 10.9012 61.71 11.2894 61.4101C11.4117 61.316 12.1158 61.053 11.5251 60.8469C11.484 60.8354 10.1598 60.5272 11.0457 60.3229C11.1916 60.2891 12.1404 60.2543 11.6358 59.986C11.538 59.9344 11.3332 60.0524 11.1917 59.9085C10.9737 59.6861 11.2089 59.359 10.7706 59.0998C10.693 59.0545 10.0376 58.8756 10.5164 58.6734C10.5914 58.6425 10.9106 58.6746 10.9412 58.5844C11.0886 58.1587 10.8535 57.7052 11.0525 57.2706C11.1222 57.1134 11.6377 57.1681 11.7674 57.001C11.8968 56.8301 12.0145 56.5088 11.7734 56.3534C11.5322 56.1972 10.7242 56.4153 10.6481 56.1667C10.3967 55.3413 10.5919 54.5229 10.7143 53.6819C10.753 53.4275 10.7845 53.1697 10.7928 52.9089C10.7981 52.7466 10.5103 52.8908 10.4972 52.651C10.4476 51.7914 10.1315 50.274 10.7338 49.5169C11.2157 48.898 11.6134 49.6519 11.8041 49.1832C11.895 48.9548 10.9401 48.7407 10.9089 48.6878C10.5929 48.1757 11.0047 47.7878 10.8654 47.3266C10.8365 47.2302 10.4539 47.3339 10.4335 47.2516C10.3606 46.9705 10.5259 46.6676 10.4887 46.3946C10.4712 46.2743 10.1779 46.3027 10.1982 46.1912C10.2436 45.9242 10.3623 45.6853 10.6325 45.418C10.6572 45.3937 11.0259 45.5472 11.0355 45.3483C11.0501 45.0229 11.3142 44.6278 11.0268 44.2633C10.9403 44.1555 10.2687 44.1637 10.7281 43.9192C10.8241 43.8681 11.6316 43.9157 10.9299 43.6546C10.8133 43.6113 9.86525 43.1702 10.4672 42.9335C10.6256 42.8712 11.2829 42.7078 11.1769 42.5777C11.1601 42.5601 10.8005 42.6379 10.7635 42.5292C10.6392 42.146 10.6711 41.7474 10.5518 41.3536C10.5192 41.2486 10.1484 41.4117 10.1118 41.255C10.0105 40.8225 10.0974 40.2871 10.208 39.8617C10.2494 39.7052 10.5603 39.8084 10.5938 39.7965C11.1384 39.6059 10.398 39.5094 10.3541 39.4499C10.0907 39.0792 10.4337 38.7884 10.337 38.4432C10.3113 38.3479 9.95994 38.4206 9.92826 38.402C9.61862 38.2086 10.2533 38.3471 10.3213 38.221C10.514 37.8692 10.4805 37.4806 10.4308 37.1275C10.4121 36.9978 10.0055 37.1491 9.99341 37.0326C9.91407 36.3437 9.94431 35.6266 10.1616 34.951C10.2032 34.8238 10.5187 34.8998 10.5903 34.8726C11.0907 34.6848 10.4021 34.4262 10.3361 34.3656C10.0347 34.09 10.3116 33.9788 10.2569 33.7327C9.98493 32.5324 10.154 31.0436 10.2572 29.908C10.3897 28.4241 10.6792 27.2792 10.5901 25.8665C10.5849 25.7773 10.1671 25.8706 10.1572 25.7938C10.0483 24.7943 10.2045 23.8101 10.0765 22.8147C10.0667 22.7321 9.67084 22.8541 9.64183 22.7216C9.57955 22.45 9.59871 22.1081 9.72351 21.837C9.78363 21.7047 10.1253 21.8791 10.1788 21.7461C10.3043 21.4311 10.3302 21.0935 10.2645 20.7759C10.2357 20.6406 9.8313 20.8476 9.82544 20.6717C9.77708 19.4586 9.69975 18.2818 10.2176 17.0565C10.2532 16.9749 11.0773 16.8951 10.9181 16.7157C10.6891 16.7035 10.4199 16.7059 10.1753 16.7015C10.0718 15.4298 10.1885 14.1647 10.2726 12.8944C10.3043 12.3986 10.3315 11.9321 10.3403 11.4446C10.3415 11.3715 9.90548 11.5006 9.90571 11.3594C9.90636 10.5238 9.77944 9.72282 10.2068 8.87018C10.2486 8.78484 11.0176 8.81973 10.8993 8.5749C10.8778 8.5366 10.772 8.15549 10.6043 8.06227C10.5791 8.04956 10.2209 8.11994 10.2094 8.00113C10.1487 7.29939 10.2237 6.57621 10.4347 5.87266C10.4694 5.758 10.8529 5.87482 10.881 5.79357C11.0769 5.22508 10.7784 4.61318 11.1137 4.08424C11.339 3.73428 12.0024 3.84764 12.6464 3.6412C12.7375 3.60789 12.7434 3.41076 13.1199 3.38573C14.0668 3.28775 15.1139 3.35124 16.123 3.24031C16.2291 3.21476 16.2303 3.16768 16.2314 2.90172C16.2312 2.87019 16.2278 2.81349 16.2189 2.74101C16.2115 2.67977 16.1971 2.56767 16.138 2.38118C16.1235 2.33602 16.1073 2.2895 16.0868 2.23775C16.0511 2.15159 16.0053 2.05537 15.9451 1.95233C15.8006 1.73208 15.7338 1.56903 15.2723 1.21964C14.864 0.93268 14.4742 0.838393 14.226 0.799121C13.9918 0.765458 13.9405 0.767895 13.92 0.758913C13.903 0.751922 13.9107 0.744557 13.9097 0.736671C13.9142 0.729318 13.9064 0.718541 14.03 0.714437C14.1376 0.713164 14.5067 0.714017 14.974 0.91965C15.2112 1.02342 15.4744 1.19383 15.6841 1.39544C15.8337 1.53673 15.9348 1.65783 16.0308 1.79148C16.124 1.92224 16.1959 2.04806 16.2518 2.15987C16.2887 2.22892 16.3173 2.28619 16.3445 2.34471C16.3964 2.45224 16.4438 2.58717 16.4649 2.62042C16.5188 2.73227 16.5627 2.82524 16.6026 2.87432C16.666 3.07109 16.8501 3.34369 17.0317 3.39802C17.1571 3.43972 17.5383 3.33926 17.7003 3.43161C17.8617 3.51695 17.5424 3.62231 17.732 3.75839C17.9237 3.88752 18.3601 3.81961 18.4176 4.09182ZM18.5919 73.8273C18.5235 73.3984 17.9447 74.6142 18.3218 74.4257C18.341 74.4152 18.5957 73.8484 18.5919 73.8273ZM43.3698 75.8896C43.0928 75.301 42.9268 76.1768 43.1223 76.6319C43.3186 77.0866 43.4546 76.068 43.3698 75.8896ZM46.0969 75.3923C45.7744 74.933 45.7771 76.8422 46.0996 76.4473C46.1183 76.425 46.1158 75.4189 46.0969 75.3923ZM12.8517 4.51413C12.8695 4.51107 12.8841 4.35244 12.8662 4.34665C12.4373 4.26931 12.4085 4.59014 12.8517 4.51413ZM48.7812 74.8841C48.6856 74.6261 48.4087 74.9258 48.5292 75.2462C48.6295 75.5037 48.8997 75.2048 48.7812 74.8841ZM14.9786 63.3806C14.9983 63.3756 15.0049 63.2587 14.8923 63.2719C14.5296 63.3154 14.6481 63.4661 14.9786 63.3806ZM53.1365 75.2364C52.715 74.9789 52.407 73.3296 53.2937 73.7285C53.4357 73.8034 52.8235 74.1174 52.9789 74.3085C53.1067 74.4778 53.29 74.3478 53.493 74.2711C53.6907 74.1922 53.9069 74.1714 53.9308 74.4922C53.922 74.5956 53.1383 75.2376 53.1347 75.238C53.1353 75.2374 53.1359 75.2369 53.1365 75.2364ZM19.1105 72.2908C19.1133 72.2729 18.9715 72.1915 18.9612 72.2059C18.701 72.5578 18.999 72.7278 19.1105 72.2908ZM15.3564 56.5411C15.3938 56.5315 15.4129 56.1613 15.3775 56.1499C14.6709 55.9872 14.6303 56.7387 15.3564 56.5411ZM29.8344 73.2666C30.0382 72.8499 30.243 72.8127 30.3479 73.3602C30.1765 73.3206 30.0066 73.3051 29.8344 73.2666Z" fill="#721AAA"/>
<path id="Vector 9" d="M0.0165849 22.7563C-0.0629034 22.1736 0.155663 21.491 0.409414 21.0398C0.48797 20.8993 0.709653 21.0165 0.774924 20.9216C0.903851 20.7299 0.82293 20.5342 0.97185 20.3595C1.02171 20.3054 1.37565 20.459 1.41937 20.4011C1.65826 20.0758 1.64075 19.7274 1.80534 19.4013C2.61987 17.8006 3.27664 16.3199 4.02249 14.8304C4.27221 14.33 4.82775 13.8568 4.90064 13.2826C4.9091 13.2147 4.58725 13.1256 4.56671 13.1036C4.25528 12.76 4.84885 13.0773 4.97879 12.9954C5.49425 12.6671 5.73626 12.1754 5.81438 11.6748C5.84351 11.469 5.15911 11.3905 5.57933 11.3521C5.60788 11.3491 5.91007 11.5371 5.96665 11.5015C6.09409 11.4207 6.13369 11.1748 6.19976 11.0948C6.32876 10.9411 6.33795 10.9119 6.41353 10.7528C6.51958 10.537 6.80128 10.3392 6.83762 10.0681C6.84403 10.0106 6.48541 9.92662 6.46617 9.82108C6.44692 9.71568 6.5733 9.5145 6.68431 9.47742C6.79522 9.44053 7.03837 9.59077 7.10333 9.60527C7.64942 9.73229 7.07888 9.15681 7.07511 9.12068C7.06268 8.75186 7.23098 8.48651 7.43285 8.23735C7.61561 8.01291 7.82165 7.81096 7.94511 7.55473C8.14201 7.14388 8.22783 6.64424 8.43853 6.26494C8.69144 5.81256 9.06365 5.50995 9.26521 5.04572C9.28714 4.99642 8.88099 4.85775 8.90706 4.79708C9.18027 4.16115 9.55138 3.56148 10.1444 3.08855C10.2038 3.04205 10.4853 3.30218 10.5638 3.26722C11.0437 3.03501 12.0042 2.85436 10.7667 1.774C10.9803 1.54846 11.2478 1.25633 11.6887 1.20139C11.9271 1.17328 12.1217 1.44427 12.1732 1.3592C12.1872 1.33753 12.1978 1.30163 12.2093 1.24334C12.2291 1.15778 11.8827 1.01871 11.9452 0.895409C12.1182 0.652898 12.2539 0.266392 13.2729 0.0263922C13.7993 -0.0825993 14.4996 0.164491 14.8088 0.428587C15.1438 0.689313 15.2913 0.896788 15.4348 1.05413C15.5457 1.1813 15.8071 0.997512 15.8807 1.01654C16.2871 1.1392 16.1511 1.52061 15.9859 1.72189C15.9002 1.79737 15.819 1.85927 15.806 1.88123C15.5095 2.38659 15.7328 2.62587 15.8021 2.98952C15.8176 3.07326 16.2145 2.88395 16.2446 2.96202C16.3952 3.36974 16.4418 3.80134 16.3309 4.22589C16.3052 4.32068 15.9319 4.31064 15.9013 4.35948C15.7707 4.57323 16.4544 4.482 16.3419 4.68196C16.3191 4.7239 16.0089 4.76369 15.9765 4.77688C15.4689 4.98422 16.2348 4.92679 16.2564 4.9491C16.5481 5.23524 15.8116 5.60489 15.9917 5.89959C16.0139 5.93395 16.3808 5.76471 16.4197 5.86571C16.6809 6.53905 16.7588 7.25433 16.682 8.00646C16.6706 8.12321 16.3655 8.14772 16.333 8.16572C15.8297 8.4592 16.5774 8.2763 16.6158 8.29812C16.902 8.48193 16.4028 8.96523 17.3173 8.79021C17.4139 9.57491 17.9008 10.1819 18.2008 10.8898C18.3706 11.2766 18.4783 11.6878 18.4684 12.1863C18.4687 12.2047 18.1339 12.3803 18.136 12.4162C18.1579 12.8505 18.6149 12.4761 19.3559 12.3082C19.5418 12.2657 18.9127 12.89 18.8683 12.9384C18.7039 13.1157 18.1955 13.3612 18.1684 13.403C17.9606 13.7393 19.5116 12.7214 19.6359 12.9158C19.6372 12.9236 19.3326 13.081 19.3145 13.1158C19.2573 13.2245 19.4042 13.2024 19.337 13.3157C19.1807 13.5762 18.4478 14.1035 19.001 13.9943C19.0725 13.9797 19.9362 13.3775 20.0058 13.5776C20.0335 13.6593 20.2468 13.9563 20.2445 14.078C20.2425 14.2 19.9201 14.3262 19.9117 14.3402C19.6844 14.8136 19.4732 14.8295 18.9927 15.3082C18.5151 15.7866 19.8153 14.8927 19.9936 14.8438C20.1715 14.7953 19.9721 15.1663 19.8915 15.278C19.8109 15.3898 19.597 15.4564 19.5601 15.533C19.3242 16.0407 20.2858 15.2119 20.5483 15.1556C21.1694 15.0213 20.2883 15.8098 20.3085 16.048C20.3142 16.1128 20.5106 15.9268 20.5594 15.9554C20.7496 16.0701 20.5121 16.3722 20.9148 16.3732C20.98 16.3727 21.6685 16.1375 21.305 16.5224C21.2525 16.5777 20.9836 16.7 20.9766 16.807C20.966 16.9674 21.0381 17.1894 21.1971 17.2511C21.3135 17.2951 21.6473 16.9308 21.5945 17.1196C21.5707 17.2036 21.2792 17.2737 21.254 17.4185C21.2289 17.5633 21.3873 17.776 21.4546 17.8584C21.5207 17.9383 21.7908 17.6874 21.8159 17.6806C21.9607 17.6438 22.2159 17.7074 22.225 17.7217C22.7519 18.4204 22.7 19.4323 23.3493 20.0246C23.4006 20.0725 23.6925 19.8186 23.7036 19.8237C23.9678 19.9258 23.0203 20.3491 22.8282 20.6746C23.4597 20.2168 23.3968 20.3753 23.5567 20.4586C23.6351 20.4995 23.8612 20.2951 23.8907 20.2835C24.3368 20.1244 23.892 20.5237 23.8033 20.6089C23.4774 20.9224 23.9598 20.6957 23.7416 20.905C23.5254 21.1132 23.0954 21.2595 23.1867 21.3847C23.443 21.2656 23.9815 20.7598 24.1471 20.7939C24.7665 20.9111 24.7586 21.9341 24.9028 22.2729C25.0511 22.6159 25.156 22.6891 25.1805 22.9235C25.2264 23.3558 25.612 22.9453 25.9583 23.0518C26.3029 23.1617 25.0714 23.6874 24.8377 23.856C24.6003 24.0182 24.8781 23.913 24.7583 24.0229C24.6375 24.1311 24.4265 24.1478 24.4158 24.2547C24.4023 24.3531 24.9618 24.3458 25.2536 24.2713C25.8699 24.1076 26.429 23.6922 26.342 24.1353C26.3358 24.1606 25.9821 24.2061 25.974 24.2943C25.9334 24.5176 26.0112 24.7297 25.7939 25.2037C25.7819 25.2433 25.7095 25.3335 25.6852 25.367C25.2064 25.7126 24.7499 25.6518 24.4354 25.5279C24.3701 25.4992 24.398 25.1067 24.362 25.0854C23.996 24.8536 24.1521 25.5024 23.9289 26.234C23.9772 25.2627 23.8702 24.6713 23.6068 24.6568C23.4425 24.6468 23.4576 25.0715 23.3301 25.3647C23.2935 25.4531 23.1901 25.1559 23.1557 25.3535C23.0443 25.9996 23.1185 26.7361 22.8324 26.4261C22.8205 26.4114 22.8858 26.0583 22.8429 26.0336C22.5609 25.8717 22.4776 26.5489 22.1509 26.604C21.8964 26.6473 21.5011 26.1917 21.234 26.096C21.288 25.5953 21.2567 25.3729 21.1877 25.3508C21.1114 25.3254 20.9834 25.5728 20.8825 25.9696C20.7079 25.92 20.5066 25.9406 20.3497 25.8183C20.2945 25.7764 20.3687 25.4668 20.3651 25.432C20.3108 24.8869 20.1496 25.6053 20.1091 25.6296C19.6579 25.8586 19.3907 25.2678 18.9272 25.7573C18.9109 25.7749 18.7957 26.5247 18.7569 25.9621C18.7548 25.9234 18.9287 25.5973 18.7444 25.5476C18.5614 25.498 18.2623 25.0506 17.9596 25.3658C17.8848 25.4415 17.6496 26.0317 17.5843 25.5382C17.5758 25.4713 17.6225 25.2581 17.6137 25.1349C17.5851 24.7423 17.4402 25.4962 17.4338 24.8387C17.4284 24.1814 17.2977 23.6724 16.982 24.0832C16.9721 24.0951 16.8303 24.6889 16.7496 24.6683C16.6194 24.6348 16.4544 24.4847 16.3173 24.4699C16.2517 24.463 16.2423 24.8424 16.23 24.8477C15.763 24.9969 15.4978 24.6205 15.0491 24.4095C14.9688 24.3704 14.6455 24.8438 14.5387 24.4176C14.4201 23.9508 14.8726 22.1454 14.3904 22.5213C14.2003 22.6719 13.6413 24.9643 13.5171 23.7157C12.8827 23.9267 12.4332 23.2289 11.7786 23.564C11.7493 23.5788 11.5655 24.2139 11.504 24.1953C11.4128 24.1666 11.4088 23.8559 11.3462 23.8258C11.0846 23.6918 10.7886 23.9109 10.5286 23.8286C10.4293 23.798 10.5143 23.4906 10.3956 23.454C10.2766 23.4175 10.1324 23.8171 9.99993 23.5919C9.9007 23.4206 9.90953 22.5584 9.76348 22.4343C9.62381 23.2638 9.51469 23.2287 9.27836 23.4155C9.23284 23.4518 9.22756 23.7475 9.2036 23.7795C9.10501 23.9165 9.07455 23.6657 8.97842 23.8165C8.95504 23.8527 8.90817 24.1361 8.88643 24.1817C8.69971 24.5799 8.60672 23.91 8.59111 23.7935C8.53019 23.3505 8.4099 23.7094 8.33843 23.5271C8.26716 23.3449 8.44868 23.1616 8.35016 23.0419C8.14539 22.7942 7.83102 22.7891 7.59061 22.7355C7.4942 22.7158 7.4971 23.1051 7.48184 23.1111C7.26369 23.1732 7.13133 22.7373 6.8925 23.4716C7.08295 21.5008 6.73844 23.6399 6.51878 23.2015C6.5016 23.1661 6.62989 22.2406 6.73894 22.1201C6.84735 21.9996 6.93074 22.3098 7.08623 22.1193C7.12316 22.0747 7.43087 21.2391 7.46156 21.1905C7.70265 20.8109 7.49646 22.1914 7.4931 22.2686C7.46135 23.1021 7.81602 22.2054 7.87865 22.1498C8.16522 21.8949 8.33878 22.1226 8.5726 21.9451C8.72562 21.8307 8.88534 20.9305 8.98407 20.975C9.31085 21.1222 9.22328 22.4 9.72309 21.3606C9.82949 21.1389 9.92029 20.1415 10.041 20.9567C10.048 21.0079 10.1184 21.7472 10.2963 21.3151C10.3186 21.2607 10.364 20.973 10.3854 20.9517C10.5277 20.8141 10.5693 21.0556 10.7138 20.966C10.8597 20.8767 11.0396 20.7374 11.1696 20.8578C11.2479 20.9298 11.2765 21.4835 11.2988 21.6214C11.3596 22.0182 11.5838 21.4181 11.5862 21.8874C11.5891 22.3591 11.3353 23.0354 11.4843 23.363C11.6072 22.6165 11.7424 21.8516 11.8703 21.1015C12.2954 21.1942 12.6767 21.4998 13.1113 21.5314C13.1653 21.5345 13.1714 21.1241 13.2307 21.1171C13.4793 21.0891 13.6479 21.4074 13.9131 21.3298C14.1169 21.268 14.3949 20.8736 14.6091 20.7951C14.6081 21.6698 14.9492 21.4222 15.1554 21.5316C15.2282 21.5696 15.1903 21.7978 15.234 21.8802C15.399 22.1855 15.4109 21.4144 15.4836 21.3031C15.7933 20.8281 15.5759 22.5462 15.8639 22.5433C15.8781 22.5436 16.1914 21.6554 16.2241 21.6019C16.4362 21.2529 16.2067 21.9238 16.2977 22.0052C16.4618 22.1537 16.5635 22.3902 16.8139 22.1515C16.8864 22.0805 17.1154 21.531 17.1778 21.9884C17.1861 22.0483 17.1365 22.3495 17.1471 22.3689C17.3402 22.6954 17.474 21.746 17.6504 21.442C17.8266 21.1379 17.9429 21.8207 17.9619 22.0155C18.0084 22.5192 17.8499 22.2135 17.8373 22.2606C17.6912 22.8226 17.8574 22.7444 17.9661 22.8077C17.8615 23.7419 18.0296 23.7069 18.079 22.8694C18.0843 22.7779 17.9838 22.8533 17.9661 22.8077C18.1861 21.9063 18.3761 21.8119 18.4623 22.6917C18.503 23.1041 18.3536 23.5599 18.6568 23.4246C18.7934 23.3635 18.8254 22.7152 18.9576 22.5539C19.2607 22.1862 19.5184 22.826 19.7879 22.7624C19.8882 22.7396 19.8366 22.3767 19.9064 22.3489C20.0908 22.2741 20.2081 22.5555 20.3973 22.4402C20.4142 22.4293 20.4189 22.0565 20.4724 22.0579C20.841 22.0612 21.1387 22.2843 21.4989 22.3648C21.5397 22.3737 21.5807 22.3809 21.6222 22.3858C21.8206 22.4094 22.202 22.2411 22.4003 22.2999C22.7454 22.4006 23.136 22.971 23.4255 22.8542C23.614 22.7796 23.5846 22.4064 23.6691 22.1569C23.8219 21.6732 24.0093 22.5513 24.041 22.6861C24.0456 22.6908 23.9169 22.7786 23.9869 22.9689C24.0311 23.3655 24.0405 22.6878 24.041 22.6861C24.0687 22.7751 24.2736 22.8493 24.2599 22.7768C24.2623 22.7375 24.2172 22.389 24.2159 22.3755C24.202 22.297 24.1296 22.2271 23.8849 22.2583C23.657 22.2688 23.1354 22.5483 22.9228 22.7728L22.3343 23.6571C22.1852 23.9804 22.1176 24.2776 22.0878 24.5155C22.0617 24.729 22.0633 24.8753 22.0705 25.0066C22.0887 25.2634 22.1184 25.3535 22.1449 25.4409C22.1933 25.5762 22.2277 25.5768 22.255 25.5438C22.2608 25.5393 22.6223 25.3848 22.6307 25.3747C22.7457 25.2035 22.2479 25.2903 21.9204 25.2919C21.5894 25.287 21.5939 25.11 22.1072 24.6561C21.9515 24.5643 22.0858 24.2182 22.1625 24.0024C22.2424 23.7917 21.588 24.1892 21.5691 24.1878C20.9592 24.1371 21.2078 23.7195 21.037 23.3414C20.9623 23.1689 20.6532 22.9092 20.4667 22.7833C20.3155 22.6804 20.4099 22.5002 20.2284 22.4373C20.2041 22.4287 19.9342 22.6377 19.9197 22.6398C19.4858 22.7266 20.2209 22.3263 20.3238 22.2131C20.6964 21.7992 20.892 21.5746 20.5569 21.5348C20.4803 21.5259 19.4034 22.0752 19.2935 22.0386C19.1527 21.99 19.5334 21.7853 19.3761 21.7395C19.3629 21.7353 19.1452 21.8867 19.1105 21.8151C18.945 21.4822 18.8469 21.0642 18.6132 20.7674C18.5817 20.7257 18.2714 21.0175 18.22 20.961C17.9766 20.6913 17.774 20.3642 17.7437 19.967C17.7377 19.869 18.0116 19.7484 18.0739 19.6843C18.4498 19.2954 17.7216 19.5902 17.6944 19.5759C17.0342 19.2557 17.3422 18.4635 16.7084 18.1047C16.6731 18.0867 15.8344 18.3118 16.3575 17.8204C16.392 17.7874 16.9304 17.2896 16.4595 17.473C16.43 17.4844 16.1593 17.7508 16.1198 17.6211C16.0804 17.4917 15.7565 17.4503 16.0001 17.0744C16.0763 16.9552 16.6102 16.4528 16.0353 16.6229C15.996 16.6361 14.7602 17.1193 15.4629 16.5533C15.5791 16.461 16.3844 15.9582 15.867 16.0533C15.7668 16.0719 15.6263 16.2451 15.4602 16.231C15.2045 16.2097 15.3069 15.8979 14.8454 15.9603C14.7635 15.9711 14.1435 16.1968 14.4949 15.8377C14.55 15.7816 14.836 15.6408 14.8336 15.5707C14.8237 15.2369 14.4811 15.0904 14.513 14.7276C14.5234 14.5988 14.9862 14.3725 15.0456 14.2083C15.1053 14.0447 15.101 13.7874 14.844 13.8171C14.5858 13.8449 13.956 14.3791 13.8113 14.2694C13.6436 14.1417 13.5217 13.9844 13.427 13.8092C13.1095 13.2342 13.0323 12.5296 12.7948 11.9225C12.7466 11.7985 12.5307 12.0247 12.4412 11.8491C12.1055 11.2135 11.3851 10.1077 11.7966 9.33338C12.1242 8.72299 12.6664 9.18068 12.7515 8.77798C12.7942 8.5908 11.8314 8.68154 11.7904 8.64747C11.3826 8.33053 11.7165 7.94489 11.5052 7.62716C11.4615 7.56115 11.105 7.72364 11.0719 7.66583C10.955 7.46749 11.0714 7.20738 10.997 7.01645C10.9629 6.93111 10.6794 7.01062 10.6837 6.92346C10.691 6.7169 10.7763 6.52081 11.009 6.28327C11.0303 6.26179 11.4112 6.30017 11.3965 6.15982C11.3716 5.93197 11.5854 5.61051 11.2625 5.41992C11.1656 5.364 10.5056 5.48881 10.9311 5.24698C11.0201 5.19676 11.8196 5.08241 11.1012 5.03985C10.9815 5.03054 10.0027 4.92379 10.5695 4.67005C10.7187 4.603 11.3466 4.37824 11.2285 4.3196C11.2101 4.31234 10.8656 4.42778 10.8177 4.37013C10.6551 4.16608 10.6429 3.92945 10.4826 3.74324C10.4392 3.69441 10.0957 3.8633 10.043 3.78951C9.95668 3.66989 9.93026 3.5226 9.93412 3.37665C9.98581 3.44192 10.0518 3.5629 10.2784 3.88663C10.5213 4.21242 10.6398 3.80524 10.6836 3.81448C11.0318 3.8584 11.1397 4.08118 11.2808 4.3825C11.4114 4.67637 11.5914 5.03782 11.8147 5.18008C12.5136 5.66348 13.6678 5.80113 14.3442 5.63026C15.0471 5.47541 15.393 5.22361 15.6208 5.04728C16.0542 4.68069 16.0928 4.48641 16.2235 4.40568C16.2862 4.36374 16.5373 4.61542 16.5712 4.62268C16.5855 4.62481 16.5981 4.62642 16.6091 4.62754C16.7645 4.79187 16.313 4.41921 16.236 4.41163C16.004 4.39594 15.9152 4.58071 15.8546 4.7615C15.8327 4.82836 16.2193 4.98092 16.1959 5.03816C16.063 5.38293 15.8203 5.72136 15.4236 5.96769C15.3491 6.01211 15.0979 5.81704 15.0275 5.79564C14.5343 5.64741 15.0531 6.12587 15.0925 6.1899C15.2705 6.48497 14.9945 6.41022 14.9676 6.56908C14.8392 7.34846 14.2439 8.10402 13.8143 8.70988C13.3175 9.41319 12.794 9.91686 12.4512 10.6348C12.4081 10.7252 12.3683 10.8181 12.3321 10.9144C12.3111 10.9693 12.7145 11.0953 12.7013 11.1448C12.5179 11.7673 12.1039 12.2711 11.9468 12.9122C11.9335 12.964 12.3262 13.0582 12.3171 13.1466C12.3003 13.3306 12.1964 13.5099 12.0068 13.6248C11.9161 13.679 11.6518 13.435 11.5667 13.4925C11.368 13.6261 11.256 13.8108 11.2344 14.0202C11.225 14.112 11.6503 14.1512 11.6087 14.2588C11.338 14.9843 11.115 15.6995 10.3441 16.217C10.2908 16.2533 9.50643 15.9943 9.61178 16.1585C9.82163 16.2502 10.0724 16.3482 10.2987 16.4411C10.0185 17.5149 9.37905 18.4382 9.01479 19.4435C8.99932 19.4866 9.43963 19.5431 9.41214 19.6264C9.25737 20.0981 9.24136 20.585 8.69816 20.9488C8.64488 20.9855 7.90768 20.7647 7.9829 20.9411C7.99621 20.9741 8.04435 21.2076 8.19381 21.3017C8.21657 21.3148 8.57469 21.3595 8.56884 21.4296C8.53115 21.827 8.37201 22.1981 8.09898 22.5207C8.05433 22.5724 7.68652 22.4517 7.65136 22.4888C7.40309 22.7639 7.65657 23.107 7.29661 23.3329C7.05429 23.4953 6.39797 23.4005 5.7445 23.4886C5.65218 23.4985 5.63526 23.6332 5.25724 23.637C4.30592 23.6503 3.26535 23.5607 2.25125 23.5812C2.0323 23.591 2.26707 23.8291 1.73962 23.6886C1.70405 23.6798 1.53064 23.4922 1.35326 23.4354C1.23034 23.3973 0.844259 23.4518 0.687609 23.3764C0.531118 23.3047 0.856192 23.2245 0.675378 23.1054C0.493187 22.9782 0.0525117 23.0018 0.0165849 22.7563ZM22.4986 23.0355C22.731 22.7206 21.5979 23.4472 21.9458 23.3896C21.9639 23.3859 22.4873 23.0512 22.4986 23.0355ZM12.5229 22.503C12.6073 23.1163 12.8552 22.2709 12.8024 21.7992C12.7498 21.3281 12.4972 22.3171 12.5229 22.503ZM10.6575 22.6528C10.7879 23.1472 11.1158 21.2667 10.8393 21.6138C10.8233 21.6333 10.6498 22.6241 10.6575 22.6528ZM5.59121 22.9499C5.57308 22.9506 5.54757 23.0463 5.56523 23.0493C5.98727 23.132 6.03707 22.9504 5.59121 22.9499ZM8.79627 22.8318C8.81829 23.097 9.0485 22.8325 9.02146 22.5029C8.99991 22.2377 8.76907 22.5019 8.79627 22.8318ZM19.7638 16.4154C19.7794 16.4026 19.7506 16.3264 19.6572 16.3907C19.3552 16.596 19.5024 16.6317 19.7638 16.4154ZM5.75791 22.3431C6.19244 22.4911 6.19987 24.0917 5.74001 23.8323C5.65707 23.7853 6.01575 23.3696 5.92737 23.2101C5.76589 22.9196 5.46005 23.8713 5.33901 23.3119C5.31756 23.2097 5.73392 22.3313 5.75908 22.3411C5.75869 22.3418 5.7583 22.3424 5.75791 22.3431ZM23.8045 22.0794C23.817 22.066 23.7728 21.9687 23.7566 21.9763C23.3688 22.1645 23.4583 22.3617 23.8045 22.0794ZM18.0034 12.1357C18.0321 12.1102 17.9306 11.8792 17.897 11.8911C17.2337 12.1474 17.4384 12.6176 18.0034 12.1357ZM21.2326 26.0666C21.1814 26.1967 21.1311 26.2895 21.0847 26.3387C20.9876 26.4469 20.9094 26.3458 20.883 25.9702C20.9613 25.998 21.0398 26.0146 21.1165 26.034C21.1557 26.0437 21.1945 26.054 21.2326 26.0666Z" fill="#721AAA"/>
<path id="Vector 10" d="M12.633 17.2981C12.8521 17.7511 12.7948 18.241 12.6657 18.6229C12.6257 18.7433 12.382 18.7113 12.3431 18.794C12.2668 18.9554 12.3967 19.0881 12.2985 19.2721C12.2646 19.3325 11.8829 19.2854 11.8559 19.3474C11.8182 19.4374 11.7976 19.5281 11.7847 19.6512C11.7781 19.7182 11.7739 19.7903 11.7667 19.9045C11.7617 19.9805 11.7602 20.0255 11.7427 20.1886C11.7303 20.282 11.7322 20.3089 11.6841 20.546C11.6604 20.6536 11.629 20.7855 11.5614 20.9755C11.439 21.1857 11.3971 21.867 10.1305 22.7099C10.0365 22.7649 9.92616 22.8246 9.78716 22.8868C9.7176 22.9179 9.64074 22.9496 9.55429 22.9809C9.50991 22.9969 9.46924 23.0109 9.41362 23.0284C9.34249 23.0507 9.26547 23.0723 9.18146 23.0922C8.83419 23.1667 8.43375 23.2427 7.75484 23.1172C6.98768 23.0019 6.05707 22.338 5.7191 21.8054C5.33711 21.2781 5.20025 20.7443 5.15262 20.493C5.10369 20.237 5.09298 20.038 5.09155 19.8734C5.09314 19.5626 5.11595 19.4415 5.13867 19.2919C5.22542 18.8331 5.29166 18.7232 5.35863 18.5775C5.71216 17.9537 5.93007 17.7761 6.18149 17.4603C6.30453 17.3149 6.42516 17.1732 6.55976 17.0142C6.62804 16.9335 6.69881 16.8494 6.78858 16.7431C6.83567 16.6871 6.88739 16.6252 6.95921 16.5423C7.00297 16.4912 7.03921 16.4497 7.11557 16.3664C7.15436 16.3244 7.19911 16.2773 7.25705 16.2209C7.33512 16.1452 7.43228 16.0516 7.60792 15.9226C7.85728 15.7568 8.16266 15.5115 8.93516 15.3932C9.73632 15.2403 10.8442 15.7172 11.2199 16.1442C11.9909 16.9824 11.8947 17.2308 11.9931 17.449C12.0903 17.8433 12.078 17.964 12.0863 18.0977C12.0904 18.3385 12.0737 18.461 12.0608 18.5749C12.047 18.6837 12.0324 18.7693 12.019 18.8118C12.012 18.831 12.0059 18.8416 11.9961 18.8064C11.9908 18.7867 11.9852 18.7566 11.9709 18.6851C11.9471 18.5987 11.9611 18.5297 11.7991 18.1276C11.6487 17.8823 11.5426 17.273 10.3307 16.7444C9.76455 16.5303 9.16177 16.5761 8.82974 16.6674C8.45531 16.7687 8.30189 16.8648 8.14862 16.9532C7.66914 17.2727 7.67845 17.3483 7.61116 17.4124C7.52788 17.5227 7.5563 17.5079 7.5769 17.4923C7.72655 17.3688 8.11961 17.0523 8.72731 16.61C9.04237 16.3767 9.43354 16.1706 9.78586 16.0247C9.92975 15.9655 9.75576 15.6703 9.77806 15.6357C10.1773 15.115 10.1553 15.8115 10.4142 15.8687C11.4202 16.1654 11.7792 16.3924 12.2361 16.3828C12.414 16.3831 12.46 15.7039 12.509 16.1108C12.5122 16.1383 12.357 16.4574 12.3887 16.508C12.4557 16.6201 12.6534 16.6256 12.7098 16.677C12.8244 16.7801 12.843 16.7837 12.9629 16.8354C13.1247 16.9089 13.2421 17.1468 13.4407 17.1441C13.4836 17.1426 13.5777 16.7904 13.6573 16.7573C13.7357 16.7238 13.876 16.8171 13.8909 16.9162C13.9059 17.0154 13.7728 17.267 13.7556 17.3305C13.6074 17.8643 14.0812 17.2412 14.1081 17.2325C14.6281 17.1098 14.7856 17.6536 15.1433 17.8103C15.4133 17.9277 15.7638 17.9262 16.012 18.0567C16.3104 18.2147 16.4931 18.508 16.801 18.6047C16.8338 18.6155 16.9655 18.2099 17.0059 18.2223C17.3482 18.3274 17.6582 18.4839 17.9264 18.7681C17.9076 18.8031 17.8709 18.8383 17.7994 18.8804C17.7645 18.9026 17.7166 19.2735 17.6876 19.3199C17.6079 19.4649 17.4462 19.6816 17.2326 19.8575C17.025 20.0474 16.8301 20.0313 15.998 20.0166C16.0148 20.3257 16.132 20.3656 16.4346 20.2582C16.6303 20.1782 17.0267 20.0832 16.8447 20.0858C16.8043 20.0875 16.4741 20.22 16.441 20.2197C16.4403 20.2197 16.4397 20.2197 16.439 20.2197C16.2593 20.103 16.2972 19.8882 16.0635 19.7993C16.0151 19.7818 15.7238 19.9113 15.667 19.9242C15.2078 20.0285 15.8647 19.609 15.9037 19.5583C16.1974 19.1858 15.9772 19.0931 15.8966 18.8928C15.878 18.8462 15.5138 19.0785 15.4822 19.0407C15.3239 18.8437 15.2464 18.598 15.3071 18.294C15.3212 18.2253 15.6701 18.1081 15.6934 18.0667C15.7915 17.8852 15.1652 18.1723 15.2477 18.0065C15.2642 17.9718 15.5482 17.8416 15.5767 17.8222C16.0245 17.5159 15.3188 17.8108 15.2961 17.8036C14.9919 17.7158 15.6297 17.2191 15.4269 17.0785C15.402 17.0623 15.0814 17.3 15.033 17.2435C14.709 16.8692 14.5507 16.3607 14.5863 15.7695C14.5916 15.6781 14.8783 15.584 14.908 15.5621C15.371 15.2181 14.6748 15.5405 14.6371 15.5318C14.3582 15.4543 14.8339 14.9842 13.9649 15.2927C13.8416 14.3922 12.9499 13.7519 13.406 12.5813C13.4112 12.5672 13.774 12.4626 13.7829 12.4357C13.8967 12.1122 13.3598 12.3527 12.6153 12.3704C12.427 12.3702 13.2169 11.985 13.2759 11.9593C13.4891 11.8531 14.0425 11.7499 14.0822 11.7235C14.3958 11.5211 12.6065 12.0143 12.5598 11.8266C12.5615 11.8203 12.8991 11.7639 12.9286 11.7411C13.0213 11.6709 12.8786 11.6561 12.9832 11.5854C13.2002 11.439 13.9251 11.2547 13.6868 11.1901C13.6589 11.1826 13.6177 11.1766 13.5608 11.1723C13.4906 11.1675 12.4618 11.3909 12.4842 11.2406C12.494 11.1818 12.4304 10.9348 12.4855 10.8541C12.54 10.7721 12.8824 10.7607 12.896 10.7531C13.3045 10.4889 13.5001 10.5274 14.1382 10.3227C14.7741 10.1193 13.2242 10.4126 13.0441 10.4044C12.8644 10.3956 13.2064 10.1993 13.3277 10.1445C13.4491 10.0901 13.6685 10.0959 13.7354 10.0546C14.1727 9.78361 12.9488 10.0968 12.6911 10.0726C12.0807 10.0124 13.2168 9.7081 13.3086 9.55238C13.3334 9.51014 13.0749 9.58151 13.0451 9.55181C12.9305 9.43306 13.2794 9.29903 12.926 9.19659C12.8683 9.17981 12.1544 9.15845 12.6538 9.00421C12.7258 8.98239 13.0189 8.9729 13.0754 8.90692C13.1603 8.80869 13.2021 8.64756 13.0932 8.57055C13.0126 8.51354 12.5473 8.65594 12.6835 8.55049C12.7443 8.50373 13.0323 8.53556 13.1234 8.45118C13.2146 8.36755 13.1785 8.19032 13.16 8.12381C13.1413 8.05752 12.7849 8.14196 12.7598 8.13971C12.616 8.12463 12.4247 8.01586 12.4237 8.00437C12.3038 7.42474 12.8491 6.81507 12.5763 6.2806C12.5554 6.23876 12.178 6.31648 12.1709 6.31059C11.9921 6.18115 13.0205 6.16991 13.3461 6.02083C12.5747 6.13552 12.7068 6.05571 12.6082 5.96093C12.5601 5.91548 12.2644 5.98242 12.2331 5.98178C11.7687 5.96669 12.349 5.83729 12.4672 5.80759C12.9024 5.69872 12.3731 5.71446 12.6638 5.64084C12.9521 5.567 13.3972 5.58707 13.3777 5.48544C13.0973 5.49478 12.3849 5.66819 12.2574 5.60791C11.7761 5.38274 12.2636 4.77374 12.2832 4.53336C12.2916 4.43835 12.2862 4.37098 12.2817 4.3147C12.2716 4.20979 12.2675 4.13704 12.3165 4.03431C12.47 3.73012 11.9412 3.88894 11.6829 3.69171C11.4297 3.47027 12.7645 3.57112 13.05 3.54206C13.336 3.52236 13.0418 3.49739 13.1999 3.47731C13.3578 3.4659 13.5507 3.50561 13.6112 3.47893C13.6252 3.4786 13.6097 3.45739 13.5558 3.50236C13.5374 3.5189 13.5375 3.52324 13.4616 3.63356C13.4364 3.66688 13.4064 3.70775 13.3349 3.76203C13.2469 3.84441 12.9995 3.90379 12.86 3.84423C12.6174 3.74317 12.6182 3.64588 12.6015 3.62365C12.5692 3.5008 12.628 3.51756 12.6604 3.50035C12.8167 3.47322 13.0282 3.50421 13.1767 3.48602C13.7321 3.43944 14.2947 3.28161 14.2921 3.41558C14.291 3.42983 14.2784 3.44882 14.2528 3.4735C14.2404 3.48506 13.8894 3.50429 13.8598 3.54604C13.6354 3.87624 13.6637 4.18088 13.473 4.50791C13.4462 4.55307 13.0558 4.57669 13.0359 4.60374C12.8276 4.88579 13.4631 4.69834 14.2044 4.71546C13.2409 4.83819 12.6657 5.00482 12.6906 5.19299C12.7051 5.30538 13.1205 5.21777 13.4271 5.24035C13.5195 5.24694 13.2455 5.37333 13.4446 5.35431C14.0952 5.29197 14.8021 5.09794 14.5474 5.33149C14.5352 5.34197 14.1791 5.37672 14.1627 5.40858C14.0552 5.61598 14.7304 5.51889 14.8467 5.69669C14.9379 5.83534 14.5808 6.18028 14.5505 6.367C13.4802 6.58146 13.7608 6.70335 14.5105 6.60888C14.5044 6.72674 14.5724 6.83556 14.4961 6.96578C14.4702 7.01035 14.1569 7.05884 14.1248 7.07124C13.6205 7.26674 14.345 7.14716 14.3784 7.16284C14.711 7.34787 14.2335 7.70741 14.8245 7.78554C14.8461 7.78903 15.5729 7.57394 15.0638 7.79964C15.0289 7.81589 14.6754 7.84302 14.685 7.96052C14.6923 8.07218 14.3846 8.42387 14.7707 8.43914C14.8648 8.4462 15.4604 8.27543 15.0499 8.53322C14.9945 8.56897 14.7925 8.65035 14.6888 8.71426C14.3611 8.92365 15.0602 8.60968 14.5029 8.95041C13.9432 9.28587 13.6025 9.69089 14.1006 9.62809C14.1123 9.6271 14.4404 9.4431 14.5882 9.37915C14.6217 9.35045 14.6487 9.33998 14.6552 9.34987C14.7028 9.42332 14.6982 9.60037 14.7652 9.66227C14.7976 9.69196 15.0455 9.40628 15.0557 9.40681C15.4059 9.45877 15.3174 9.83976 15.4484 10.1609C15.4728 10.2212 15.9393 9.95141 15.7483 10.3268C15.5404 10.7386 14.2057 12.0293 14.7207 11.8978C14.9298 11.8476 16.5868 10.1771 15.9402 11.2275C16.4369 11.2593 16.3164 11.9731 16.8993 11.898C16.9254 11.8949 17.3878 11.4268 17.414 11.4601C17.4523 11.5107 17.2836 11.7688 17.3048 11.8125C17.3899 12.0026 17.6877 11.9078 17.8008 12.0527C17.8441 12.1072 17.6253 12.3377 17.6774 12.403C17.7295 12.4678 18.0348 12.1784 17.9932 12.4041C17.961 12.5757 17.4894 13.2911 17.5138 13.4385C18.0363 12.7982 18.0918 12.846 18.3255 12.7642C18.3294 12.7626 18.3337 12.7612 18.338 12.7598C18.3858 12.7436 18.5526 12.5014 18.585 12.4823C18.7212 12.3996 18.6004 12.6153 18.7435 12.5215C18.7782 12.4992 18.9653 12.2812 19.0043 12.2508C19.3447 11.985 19.0282 12.5669 18.9694 12.6654C18.7523 13.044 19.0321 12.7935 18.9698 12.9647C18.9051 13.134 18.6895 13.221 18.6763 13.348C18.6473 13.6088 18.8177 13.7117 18.9186 13.8355C18.9596 13.8832 19.2064 13.5867 19.2187 13.5873C19.3841 13.6191 19.175 13.9939 19.7895 13.534C18.3933 14.934 19.9865 13.4651 19.8251 13.8775C19.8114 13.9101 19.1267 14.5455 18.9866 14.5945C18.8472 14.6441 19.0071 14.3853 18.7967 14.4719C18.7464 14.4911 18.0344 15.0099 17.9876 15.0375C17.6166 15.247 18.6219 14.2794 18.6727 14.2215C19.2258 13.6022 18.4558 14.1626 18.3897 14.1888C18.077 14.297 18.1293 14.0753 17.8976 14.1511C17.7474 14.2001 17.1293 14.8739 17.1084 14.8175C17.0455 14.6513 17.6444 13.8224 17.1645 14.1464L17.1935 14.1702C17.1339 14.2105 17.0581 14.2685 16.963 14.3479C16.7783 14.5019 16.1876 15.3093 16.5485 14.5908C16.5711 14.5454 16.9253 13.9075 16.5824 14.2148C16.5392 14.2536 16.3561 14.48 16.3313 14.4914C16.1686 14.5632 16.2724 14.3487 16.1336 14.379C15.9947 14.4092 15.8071 14.4699 15.7905 14.3287C15.7802 14.244 16.0636 13.7747 16.1253 13.6535C16.3046 13.3057 15.8374 13.7336 16.0928 13.3435C16.3499 12.9519 16.8767 12.4698 16.966 12.1533C16.48 12.7331 15.9761 13.324 15.4846 13.9049C15.2703 13.6929 15.2012 13.316 14.9481 13.1445C14.9161 13.1238 14.682 13.4586 14.6408 13.4442C14.4678 13.3816 14.5427 13.0637 14.3315 13.0331C14.1674 13.011 13.7664 13.2319 13.5823 13.2135C14.0887 12.5055 13.7311 12.5798 13.6639 12.4111C13.6406 12.3527 13.7994 12.1845 13.821 12.102C13.8996 11.7951 13.432 12.4044 13.3192 12.4641C12.834 12.7145 14.0064 11.4404 13.8276 11.329C13.82 11.3241 13.0785 11.8914 13.0236 11.918C12.6715 12.0982 13.2328 11.6734 13.225 11.5704C13.2111 11.3818 13.2994 11.1588 12.9877 11.2265C12.9008 11.247 12.438 11.5296 12.6192 11.2225C12.5812 11.1627 12.4257 11.0157 12.3959 10.9514C12.404 10.9356 12.4137 10.9188 12.4251 10.9011C12.4591 10.8483 12.7159 10.6829 12.7205 10.6584C12.7974 10.2419 11.9936 10.7535 11.6144 10.7483C11.2344 10.7376 11.7109 10.206 11.8686 10.0916C12.2653 9.77625 12.0964 10.08 12.1449 10.0674C12.6938 9.87713 12.5352 9.78235 12.5349 9.66302C13.3823 9.25666 13.2807 9.16512 12.5322 9.54197C12.4506 9.58388 12.5646 9.62479 12.5349 9.66302C11.6561 9.95955 11.4609 9.80484 12.2019 9.32964C12.5504 9.10904 13.0158 9.01338 12.778 8.86216C12.6717 8.79416 12.0731 9.04332 11.875 9.00882C11.4214 8.9244 11.9189 8.48251 11.774 8.31347C11.7208 8.25048 11.3986 8.41493 11.3503 8.37407C11.2204 8.26277 11.4478 8.08043 11.2831 7.98232C11.2677 7.97342 10.9151 8.09212 10.9002 8.05173C10.7805 7.745 10.9532 7.42611 10.8954 7.11287C10.8669 6.96043 10.6141 6.73278 10.6258 6.57002C10.6434 6.28852 11.119 5.87527 10.9532 5.67686C10.8465 5.54632 10.4858 5.63812 10.2262 5.61683C9.72273 5.57438 10.5554 5.22316 10.6854 5.1747C10.6897 5.17321 10.7956 5.28276 10.9732 5.18722C11.3591 5.08715 10.6874 5.1759 10.6854 5.1747C10.769 5.14195 10.8141 4.88429 10.7367 4.84652C10.6944 4.82604 10.3492 4.89396 10.3337 4.88222C10.012 4.63181 9.86843 4.35404 9.92261 4.04851C9.93311 4.03752 9.94705 4.03201 9.96803 4.04757C9.97562 4.04959 10.3615 3.97443 10.3743 3.97862C10.3983 3.98737 10.4122 4.00238 10.4312 4.06649C10.4407 4.09729 10.4516 4.14378 10.4777 4.23106C10.4876 4.26485 10.514 4.34695 10.5538 4.44344C10.588 4.51584 10.657 4.72959 10.942 5.08503C11.2248 5.34939 11.5241 5.94203 12.9883 6.05461C13.7253 6.06969 14.3936 5.72968 14.7383 5.43086C14.9763 5.2324 15.1216 5.05066 15.2279 4.90089C15.3334 4.75031 15.3991 4.62816 15.4494 4.52603C15.4828 4.45841 15.5082 4.40066 15.5298 4.34851C15.5726 4.24461 15.5993 4.16524 15.6203 4.09917C15.6835 3.90121 15.7008 3.82715 15.7224 3.76989C15.7613 3.6627 15.7915 3.63352 15.8271 3.60318C15.9651 3.51375 16.154 3.52991 16.2974 3.52518C16.5834 3.5306 16.4892 3.55081 15.8237 3.66614C15.8568 3.67528 15.8374 3.69105 15.791 3.70937C15.7261 3.81718 15.5844 3.93845 15.4829 4.02138C15.321 4.15296 16.0786 4.04539 16.0951 4.05233C16.6191 4.26328 16.2113 4.49722 16.1852 4.79626C16.1716 4.93933 16.3187 5.19537 16.4209 5.33143C16.5031 5.43857 16.3344 5.53174 16.4617 5.6226C16.4787 5.63496 16.8148 5.577 16.8284 5.5797C17.2479 5.64639 16.4144 5.69523 16.27 5.73846C15.7446 5.89506 15.4656 5.98453 15.7368 6.10135C15.7989 6.12801 17.0014 6.07935 17.0788 6.13292C17.1771 6.20277 16.7468 6.22538 16.8606 6.29706C16.87 6.30318 17.133 6.26922 17.1278 6.32247C17.1074 6.57007 16.9863 6.84749 17.0434 7.08732C17.0503 7.12027 17.4622 7.02476 17.4789 7.07139C17.5568 7.28924 17.5726 7.53248 17.4063 7.77222C17.364 7.83121 17.0677 7.83779 16.9825 7.86088C16.4677 8.00232 17.2432 7.99884 17.2599 8.01237C17.6793 8.34798 17.034 8.74359 17.4229 9.08204C17.4454 9.10046 18.285 9.13058 17.5991 9.31525C17.5534 9.32738 16.8518 9.51759 17.3502 9.50014C17.3814 9.49879 17.7412 9.39323 17.7167 9.47653C17.6923 9.55947 17.9586 9.64171 17.5742 9.81726C17.453 9.87221 16.7573 10.0814 17.3414 10.0794C17.3822 10.0797 18.6892 9.99857 17.8171 10.2155C17.6736 10.2514 16.7385 10.4164 17.2398 10.4474C17.3369 10.4529 17.537 10.3718 17.6784 10.4075C17.6933 10.4112 17.7061 10.4155 17.7172 10.4202C17.8593 10.4375 17.6832 10.5405 18.0795 10.5031C18.1553 10.4982 18.7884 10.3748 18.3237 10.5301C18.2511 10.5552 17.942 10.6261 17.913 10.6547C17.7746 10.7946 18.0087 10.8354 17.8377 11.0124C17.7783 11.0765 17.2871 11.2241 17.1738 11.3156C17.0603 11.4066 16.9734 11.5518 17.2115 11.5178C17.4489 11.4818 18.1896 11.134 18.2762 11.1754C18.6495 11.3464 18.3596 11.8586 18.4826 12.2552C18.5006 12.3133 18.7382 12.1364 18.7832 12.2119C18.9481 12.4877 19.4825 12.8956 19.0997 13.4868C18.7913 13.9577 18.2992 13.849 18.2196 14.1239C18.1823 14.2565 19.0661 13.8931 19.1037 13.8995C19.4833 13.9595 19.1951 14.3083 19.413 14.4389C19.4581 14.4658 19.775 14.243 19.8098 14.2682C19.9318 14.3531 19.8478 14.5591 19.9363 14.6581C19.977 14.7023 20.2312 14.5545 20.2367 14.613C20.2525 14.7511 20.1968 14.9102 20.0117 15.151C19.9948 15.1727 19.6349 15.2733 19.667 15.3643C19.7196 15.5105 19.5659 15.8057 19.897 15.8396C19.9964 15.8493 20.5984 15.551 20.2356 15.8632C20.1599 15.9285 19.4231 16.2579 20.1076 16.0701C20.2205 16.0369 21.1695 15.8381 20.6726 16.2042C20.542 16.3006 19.9783 16.6522 20.0999 16.667C20.1188 16.6681 20.4298 16.4817 20.4852 16.5168C20.6739 16.6418 20.7252 16.8465 20.9102 16.985C20.9605 17.0223 21.2689 16.7965 21.3333 16.8579C21.5117 17.0282 21.5364 17.3298 21.5118 17.5796C21.5022 17.6722 21.1942 17.7358 21.1653 17.7541C20.6933 18.0467 21.3994 17.8229 21.4516 17.8375C21.7275 17.9167 21.5517 18.1342 21.6085 18.2802C21.6264 18.3272 21.6482 18.3737 21.6758 18.4199C21.7384 18.5279 22.0444 18.3335 22.0821 18.347C22.4599 18.5181 21.7946 18.5134 21.7765 18.6937C21.7152 19.2018 21.8594 19.727 21.8695 20.4833C21.867 20.7682 22.3002 20.4652 22.2865 20.7477C22.2447 21.5337 21.9035 23.0963 20.3263 24.2031C18.7278 25.2612 17.3249 25.0057 16.6806 24.7875C16.4294 24.6944 16.6578 24.4184 16.6203 24.3377C16.4076 23.7817 15.8747 24.312 15.7606 24.3377C15.6783 24.3621 15.6092 24.3712 15.5501 24.3697C15.4296 24.4289 15.454 24.2423 15.3518 24.2453C14.7449 24.268 14.1947 23.8286 13.7703 23.518C13.2142 23.1142 12.8705 22.6335 12.2708 22.4542C12.2331 22.4426 12.1006 22.8415 12.0661 22.8365C11.6299 22.7549 11.3165 22.4396 10.9227 22.4089C10.8914 22.406 10.781 22.7894 10.7267 22.7976C10.6169 22.818 10.5188 22.7559 10.4871 22.6084C10.4713 22.5372 10.6426 22.238 10.6234 22.1725C10.5805 22.0199 10.498 21.9607 10.4195 22.0022C10.3877 22.0213 10.2963 22.4181 10.268 22.4139C10.1932 22.4038 10.164 22.4527 10.5259 22.4593C10.7062 22.4568 11.0167 22.4407 11.4511 22.2895C11.8794 22.1465 12.3912 21.8136 12.6552 21.4637C12.7134 21.3688 12.7433 21.2845 12.7538 21.2102C12.7651 21.1481 12.1881 20.5579 12.3187 20.6486C12.4923 20.7977 12.6954 20.9743 12.8811 21.1337C12.9493 21.0898 12.9507 21.0978 12.8813 21.1973C12.84 21.254 12.7993 21.3151 12.6361 21.517C12.5328 21.6315 12.4827 21.7402 12.0212 22.144C11.9066 22.2389 11.719 22.3899 11.4308 22.556C11.2637 22.6516 11.0604 22.7538 10.8023 22.8477C10.5154 22.9521 10.12 23.0562 9.65701 23.0798C8.61859 23.1921 7.22061 22.5538 6.69543 21.9603C6.10132 21.3522 5.96545 20.9869 5.81864 20.6714C5.5621 20.016 5.57958 19.8535 5.54317 19.6679C5.5212 19.5046 5.51539 19.4036 5.51109 19.3166C5.50425 19.1518 5.50831 19.0563 5.51253 18.9733C5.52198 18.813 5.53699 18.7192 5.55104 18.6567C5.5662 18.6013 5.57651 18.5595 5.60047 18.6766C5.62017 18.7534 5.61024 18.8121 5.7303 19.2411C5.85537 19.4837 5.72034 19.7652 6.71763 20.855C7.19721 21.4069 8.67087 22.0644 9.74942 21.8598C10.7794 21.7028 11.1749 21.3733 11.4864 21.1626C11.9307 20.8138 11.9685 20.7176 12.0498 20.6315C12.1143 20.5523 12.1372 20.5174 12.1592 20.4848C12.1949 20.4295 12.2013 20.4111 12.2034 20.4012C12.2047 20.3848 12.184 20.4046 12.1634 20.4307C12.1544 20.4422 12.541 20.6472 12.5261 20.6696C12.4334 20.8084 12.3937 21.1533 11.9905 20.9997C11.9552 20.9732 11.2336 20.7095 11.3577 20.709C11.3707 20.7016 11.4065 20.7059 11.4929 20.5777C11.5362 20.5014 11.5949 20.4206 11.6587 20.1365C11.6863 20.0138 11.7193 19.8114 11.7089 19.5164C11.7019 19.3658 11.6933 19.2377 11.6512 19.0289C11.6037 18.802 11.5237 18.5565 11.4194 18.3299C11.306 18.0806 11.6488 18.5462 11.7292 18.5211C11.7669 18.5063 11.8051 18.3927 11.5715 17.9231C11.4377 17.6877 11.2692 17.3601 10.7051 16.8945C10.2166 16.4502 9.10992 16.075 8.54514 16.0934C7.77188 16.0639 7.21226 16.2814 7.04874 16.3419C6.8107 16.4341 6.64618 16.5219 6.51665 16.5967C5.45766 17.2626 5.20218 17.8939 5.01323 18.2453C4.96938 18.3382 4.93483 18.4208 4.90595 18.4953C4.88076 18.5608 4.87314 18.5828 4.85898 18.6231C4.83365 18.6961 4.81366 18.7606 4.79692 18.8188C4.73261 19.0425 4.70593 19.2133 4.69587 19.2746C4.67217 19.4246 4.66465 19.5268 4.66089 19.5704C4.65261 19.681 4.65238 19.7175 4.65149 19.7511C4.65055 19.8068 4.65251 19.8141 4.65536 19.8154C4.66125 19.8143 4.67259 19.7766 4.69039 19.7357C4.72594 19.6511 4.78751 19.5393 4.87786 19.4277C4.90923 19.389 5.29292 19.3769 5.31841 19.3479C5.49568 19.1365 5.17603 18.9936 5.49401 18.8339C5.70861 18.7284 6.3543 18.5873 6.96775 18.3673C7.05332 18.3325 7.0556 18.2919 7.41089 18.163C8.2998 17.8236 9.30641 17.5472 10.2543 17.1864C10.4676 17.1226 10.0998 16.8349 10.6793 16.8626C10.7239 16.8738 10.9755 17.0625 11.159 17.0567C11.2892 17.0592 11.6349 16.8738 11.8119 16.9117C11.9883 16.9495 11.7014 17.12 11.9091 17.1818C12.1186 17.2443 12.5352 17.0992 12.633 17.2981ZM14.7556 4.6033C14.4061 4.74982 15.7393 4.56517 15.4056 4.51118C15.3878 4.50879 14.7727 4.59582 14.7556 4.6033ZM15.8561 12.5392C16.148 12.0089 15.521 12.6217 15.2902 13.027C15.0607 13.4327 15.7683 12.7006 15.8561 12.5392ZM17.0825 12.9917C17.2721 12.5422 16.0464 14.0054 16.4065 13.8013C16.427 13.7899 17.0716 13.0178 17.0825 12.9917ZM7.21273 18.6043C7.23017 18.5999 7.2354 18.5374 7.21773 18.5399C6.79337 18.5978 6.78111 18.7119 7.21273 18.6043ZM18.2954 13.3805C18.4349 13.159 18.1491 13.3059 17.9777 13.5821C17.8384 13.8029 18.1198 13.6538 18.2954 13.3805ZM13.9573 9.44802C13.9377 9.45245 13.9278 9.50642 14.0396 9.48792C14.3999 9.42811 14.2871 9.37341 13.9573 9.44802ZM19.6771 14.7967C19.5375 14.5259 20.5962 13.3429 20.6845 13.714C20.6999 13.7807 20.2196 13.9459 20.1633 14.0975C20.0593 14.3722 20.8688 13.7949 20.5611 14.2504C20.5037 14.3325 19.6829 14.8149 19.6751 14.7977C19.6758 14.7974 19.6764 14.797 19.6771 14.7967ZM13.1649 4.89643C13.1476 4.90085 13.1415 4.9744 13.1592 4.97351C13.5876 4.9498 13.5999 4.79996 13.1649 4.89643ZM13.8229 12.6531C13.7884 12.6701 13.8186 12.8495 13.8536 12.8421C14.5356 12.6697 14.4849 12.3292 13.8229 12.6531ZM14.5225 6.37556C14.9586 6.36226 15.026 6.43646 14.5109 6.60843C14.5233 6.52987 14.5116 6.45399 14.5225 6.37556Z" fill="#721AAA"/>
</g>
</svg>
